# xmcd
#
# Track frame offsets: 
#        150
#        28857
#        59895
#        87937
#        109285
#        121007
#        151770
#        174852
#        214982
#        248807
#        292362
#
# Disc length: 4111 seconds
#
# Revision: 3
# Processed by: cddbd v1.5.2PL0 Copyright (c) Steve Scherf et al.
# Submitted via: ExactAudioCopy v0.99pb4
#
DISCID=a0100d0b
DTITLE=Willie King and The Liberators - Freedom Creek
DYEAR=2000
DGENRE=Blues
TTITLE0=Second Coming
TTITLE1=Uncle Tom
TTITLE2=Pickens County Payback
TTITLE3=Let's Come Together (As One Community)
TTITLE4=Pickens County Blues
TTITLE5=Twenty Long Years
TTITLE6=Stand Up And Speak The Truth
TTITLE7=The Sell-Out
TTITLE8=Clean Up The Ghetto
TTITLE9=My Boss Man And My Baby
TTITLE10=Why The Good Lord Sent Us The Blues
EXTD=
EXTT0=
EXTT1=
EXTT2=
EXTT3=
EXTT4=
EXTT5=
EXTT6=
EXTT7=
EXTT8=
EXTT9=
EXTT10=
PLAYORDER=
